<svg id="Layer_1" data-name="Layer 1" xmlns="http://www.w3.org/2000/svg" width="64" height="64" viewBox="0 0 64 64"><defs><style>.cls-1{fill:#2efdb3;}</style></defs><title>ardillita</title><path class="cls-1" d="M64,7.41V56.63a9.42,9.42,0,0,1-2.17,4.54A9.19,9.19,0,0,1,56.63,64h-15c0-.1,0-.21,0-.31q0-10.9,0-21.8c0-.58.2-.8.8-.8,2.27,0,4.54,0,6.81,0,1.09,0,1.62-.46,1.74-1.47.26-2.21.53-4.42.77-6.63.16-1.44-.32-2-1.75-2H42.37c-.46,0-.77-.08-.76-.64,0-2.08,0-4.16,0-6.24a4,4,0,0,1,1.15-3,4.36,4.36,0,0,1,2.69-1C47,20,48.56,20.06,50.09,20a1.28,1.28,0,0,0,1.39-1.36q0-3,0-6.06a1.27,1.27,0,0,0-1.35-1.4,72.88,72.88,0,0,0-8.23.13,10.83,10.83,0,0,0-7.81,4.41,12.74,12.74,0,0,0-2.29,7.46c0,2.35,0,4.71,0,7.06,0,.59-.21.81-.81.8-1.6,0-3.2,0-4.81,0-1.25,0-1.73.49-1.74,1.75,0,2.16,0,4.33,0,6.49,0,1.3.52,1.81,1.83,1.82,1.58,0,3.16,0,4.74,0,.6,0,.8.21.8.8,0,7.37,0,14.74,0,22.11H7.41c-.32-.08-.65-.15-1-.24A8.61,8.61,0,0,1,0,55.64Q0,32,0,8.37A8.53,8.53,0,0,1,8.38,0Q32,0,55.64,0a8.16,8.16,0,0,1,5.55,2.23A9,9,0,0,1,64,7.41Z"/></svg>