<svg id="Layer_1" data-name="Layer 1" xmlns="http://www.w3.org/2000/svg" width="64" height="64" viewBox="0 0 64 64"><defs><style>.cls-1{fill:#2efdb3;}</style></defs><title>ardillita</title><path class="cls-1" d="M64.45,36.16l-19.58,23c-1.46,1.71-2.94,3.4-4.4,5.1H13.86c-.2-.2-.42-.4-.61-.62Q7.13,56.52,1,49.38c-.71-.82-.74-1.13-.21-2.06L18.87,15.94c.34-.59.33-.61-.32-.62H1.94c-.8,0-1.31-.29-1.44-.84A1.25,1.25,0,0,1,1.21,13c.94-.61,1.86-1.26,2.8-1.88L19.67.67c.89-.59,1.42-.55,2,.17Q26.84,7,32,13.08A1.76,1.76,0,0,1,32.32,15c-1.74,4.65-3.44,9.32-5.15,14-.32.87-.63,1.75-1,2.71l.56-.19,21.41-8.29,4.08-1.57a1.14,1.14,0,0,1,1.51,1.5l-.18.46L48.08,37c-.07.18-.28.38-.11.57s.39,0,.59,0c4.66-1,9.33-1.89,14-2.86.74-.15,1.4-.19,1.9.5ZM22.5,15.31a1,1,0,0,0-1,.58q-4.47,7.8-9,15.58L4.29,45.81l-.22.38c-.05.1-.15.22-.06.34s.23,0,.35,0l4.15-.84,10.27-2.09a1.06,1.06,0,0,0,.91-.77q4.85-13.28,9.73-26.54c0-.14.09-.28.15-.41.18-.42,0-.57-.39-.57H25.74C24.66,15.32,23.58,15.34,22.5,15.31ZM5.81,48.57l0,.12,3.5,1.38c4.29,1.67,8.58,3.32,12.85,5A2,2,0,0,0,24,55q15.51-8.13,31-16.21l.38-.2,0-.1ZM26,56.44a2.24,2.24,0,0,0,.9.47C31,58.49,35,60.05,39.05,61.64a.67.67,0,0,0,.91-.22L58.48,39.65s0-.07.08-.19ZM38.78,29.31q-6.49,2.52-13,5a1.41,1.41,0,0,0-.92.92c-.83,2.33-1.7,4.65-2.54,7-.07.19-.25.4-.08.58s.35,0,.53,0l6.42-1.29a1.62,1.62,0,0,0,.72-.35q8.32-7.31,16.68-14.59a1.46,1.46,0,0,1,.28-.14l-.15-.17ZM28.91,13l-1.76-2.13c-2.1-2.5-4.21-5-6.3-7.51-.28-.32-.48-.42-.87-.16-4.73,3.19-9.47,6.35-14.2,9.53a2.67,2.67,0,0,0-.34.27ZM10.21,56.62c1.43,1.68,2.88,3.35,4.3,5a1.07,1.07,0,0,0,.9.44H33.52l.32,0-28.18-11-.07.13Zm24.1-16.31a2,2,0,0,0,1.09-.1l9.1-1.85a.91.91,0,0,0,.77-.54q2.16-5.28,4.34-10.56a1.69,1.69,0,0,0,0-.37Z"/></svg>