<svg id="Layer_1" data-name="Layer 1" xmlns="http://www.w3.org/2000/svg" width="64" height="64" viewBox="0 0 64 64"><defs><style>.cls-1{fill:#2efdb3;}</style></defs><title>ardillita</title><path class="cls-1" d="M48.86,6.53H15.14a8.62,8.62,0,0,0-8.61,8.61V48.86a8.62,8.62,0,0,0,8.61,8.61H48.86a8.62,8.62,0,0,0,8.61-8.61V15.14A8.62,8.62,0,0,0,48.86,6.53ZM32,47.45A15.45,15.45,0,1,1,47.45,32,15.47,15.47,0,0,1,32,47.45ZM49,18.74a3.66,3.66,0,1,1,3.66-3.65A3.66,3.66,0,0,1,49,18.74ZM32,23.08A8.92,8.92,0,1,0,40.92,32,8.93,8.93,0,0,0,32,23.08ZM64,48.86A15.15,15.15,0,0,1,48.86,64H15.14A15.15,15.15,0,0,1,0,48.86V15.14A15.15,15.15,0,0,1,15.14,0H48.86A15.15,15.15,0,0,1,64,15.14Z"/></svg>