<svg id="Layer_1" data-name="Layer 1" xmlns="http://www.w3.org/2000/svg" width="64" height="64" viewBox="0 0 64 64"><defs><style>.cls-1{fill:#2efdb3;}</style></defs><title>ardillita</title><path class="cls-1" d="M0,52.15c1-.1,2,.11,3,.1a26.33,26.33,0,0,0,15.52-5c.17-.12.37-.19.47-.45-.78-.14-1.57-.23-2.32-.42a13.18,13.18,0,0,1-9.3-8.11c-.32-.76-.28-.82.54-.7a14.85,14.85,0,0,0,4.76-.23l-.5-.19-.42-.12A13.09,13.09,0,0,1,2.58,25.78c0-.24-.07-.49-.08-.74,0-.79,0-.85.72-.51a12.87,12.87,0,0,0,3.38,1.1c.48.09,1,.12,1.65.2a14.58,14.58,0,0,1-2.82-2.7,13,13,0,0,1-2.74-9.37A13,13,0,0,1,4.1,8.93c.35-.67.37-.69.87-.1a37.06,37.06,0,0,0,7.55,6.81,36.22,36.22,0,0,0,15.92,6.07c.77.1,1.54.15,2.3.24.54.07.71-.15.62-.68a12.46,12.46,0,0,1,.75-7A12.77,12.77,0,0,1,42.49,6.05,12.69,12.69,0,0,1,53.56,9.63a1.09,1.09,0,0,0,1.13.25,27,27,0,0,0,6.93-2.65c.19-.1.4-.36.6-.16s0,.39-.1.58a13,13,0,0,1-4.8,6.1l-.39.29a26.81,26.81,0,0,0,7-1.93c.18.24,0,.34-.06.45a24.89,24.89,0,0,1-5.59,5.86,1.47,1.47,0,0,0-.66,1.36A38.07,38.07,0,0,1,45.44,48.47a34.49,34.49,0,0,1-18,9,38.68,38.68,0,0,1-9.72.57A36.6,36.6,0,0,1,1,52.84c-.34-.21-.69-.38-1-.57Z"/></svg>